<?xml version="1.0" encoding="UTF-8" standalone="no"?>
<!-- Created with Inkscape (http://www.inkscape.org/) -->

<svg
   xmlns:dc="http://purl.org/dc/elements/1.1/"
   xmlns:cc="http://creativecommons.org/ns#"
   xmlns:rdf="http://www.w3.org/1999/02/22-rdf-syntax-ns#"
   xmlns:svg="http://www.w3.org/2000/svg"
   xmlns="http://www.w3.org/2000/svg"
   xmlns:sodipodi="http://sodipodi.sourceforge.net/DTD/sodipodi-0.dtd"
   xmlns:inkscape="http://www.inkscape.org/namespaces/inkscape"
   width="628.62769"
   height="203.61546"
   id="svg2"
   sodipodi:version="0.32"
   inkscape:version="0.47 r22583"
   sodipodi:docname="coordinatesFor3d.svg"
   inkscape:output_extension="org.inkscape.output.svg.inkscape"
   version="1.0">
  <defs
     id="defs4">
    <marker
       inkscape:stockid="Torso"
       orient="auto"
       refY="0"
       refX="0"
       id="Torso"
       style="overflow:visible">
      <g
         id="g3432"
         transform="scale(0.7,0.7)">
        <path
           id="path3434"
           d="M -4.7792281,-3.239542 C -2.4288541,-2.8736027 0.52103922,-1.3019943 0.25792722,0.38794346 C -0.0051877922,2.0778819 -2.2126741,2.6176539 -4.5630471,2.2517169 C -6.9134221,1.8857769 -8.521035,0.75201414 -8.257922,-0.93792336 C -7.994809,-2.6278615 -7.1296041,-3.6054813 -4.7792281,-3.239542 z"
           style="fill:none;fill-opacity:0.75;fill-rule:evenodd;stroke:#000000;stroke-width:1.25;marker-start:none;marker-mid:none;marker-end:none" />
        <path
           id="path3436"
           d="M 4.4598789,0.088665736 C -2.5564571,-4.378332 5.2248769,-3.9061806 -0.84829578,-8.7197331"
           style="fill:none;fill-opacity:0.75;fill-rule:evenodd;stroke:#000000;stroke-width:1pt;marker-end:none" />
        <path
           id="path3438"
           d="M 4.9298719,0.057520736 C -1.3872731,1.7494689 1.8027579,5.4782079 -4.9448731,7.5462725"
           style="fill:none;fill-opacity:0.75;fill-rule:evenodd;stroke:#000000;stroke-width:1pt;marker-start:none;marker-end:none" />
        <rect
           id="rect3440"
           transform="matrix(0.527536,-0.849533,0.887668,0.460484,0,0)"
           y="-1.7408575"
           x="-10.391706"
           height="2.7608147"
           width="2.6366582"
           style="fill-rule:evenodd;stroke-width:1pt;marker-end:none" />
        <rect
           id="rect3442"
           transform="matrix(0.671205,-0.741272,0.790802,0.612072,0,0)"
           y="-7.9629307"
           x="4.9587269"
           height="2.8614161"
           width="2.7327356"
           style="fill-rule:evenodd;stroke-width:1pt;marker-end:none" />
        <path
           id="path3444"
           transform="matrix(0,-1.109517,1.109517,0,25.96648,19.71619)"
           d="m 16.779951,-28.685045 c 0,0.335412 -0.271905,0.607317 -0.607317,0.607317 -0.335412,0 -0.607317,-0.271905 -0.607317,-0.607317 0,-0.335412 0.271905,-0.607318 0.607317,-0.607318 0.335412,0 0.607317,0.271906 0.607317,0.607318 z"
           sodipodi:ry="0.60731727"
           sodipodi:rx="0.60731727"
           sodipodi:cy="-28.685045"
           sodipodi:cx="16.172634"
           style="fill:#ff0000;fill-opacity:0.75;fill-rule:evenodd;stroke:#000000;stroke-width:1pt;marker-start:none;marker-end:none"
           sodipodi:type="arc" />
        <path
           id="path3446"
           transform="matrix(0,-1.109517,1.109517,0,26.8245,16.99126)"
           d="m 16.779951,-28.685045 c 0,0.335412 -0.271905,0.607317 -0.607317,0.607317 -0.335412,0 -0.607317,-0.271905 -0.607317,-0.607317 0,-0.335412 0.271905,-0.607318 0.607317,-0.607318 0.335412,0 0.607317,0.271906 0.607317,0.607318 z"
           sodipodi:ry="0.60731727"
           sodipodi:rx="0.60731727"
           sodipodi:cy="-28.685045"
           sodipodi:cx="16.172634"
           style="fill:#ff0000;fill-opacity:0.75;fill-rule:evenodd;stroke:#000000;stroke-width:1pt;marker-start:none;marker-end:none"
           sodipodi:type="arc" />
      </g>
    </marker>
    <marker
       inkscape:stockid="Arrow1Lend"
       orient="auto"
       refY="0"
       refX="0"
       id="Arrow1Lend"
       style="overflow:visible">
      <path
         id="path3222"
         d="M 0,0 L 5,-5 L -12.5,0 L 5,5 L 0,0 z"
         style="fill-rule:evenodd;stroke:#000000;stroke-width:1pt;marker-start:none"
         transform="matrix(-0.8,0,0,-0.8,-10,0)" />
    </marker>
    <marker
       inkscape:stockid="Arrow1Lstart"
       orient="auto"
       refY="0"
       refX="0"
       id="Arrow1Lstart"
       style="overflow:visible">
      <path
         id="path3677"
         d="M 0,0 L 5,-5 L -12.5,0 L 5,5 L 0,0 z"
         style="fill-rule:evenodd;stroke:#000000;stroke-width:1pt;marker-start:none"
         transform="matrix(0.8,0,0,0.8,10,0)" />
    </marker>
    <marker
       inkscape:stockid="Arrow2Lend"
       orient="auto"
       refY="0"
       refX="0"
       id="Arrow2Lend"
       style="overflow:visible">
      <path
         id="path3698"
         style="font-size:12px;fill-rule:evenodd;stroke-width:0.625;stroke-linejoin:round"
         d="M 8.7185878,4.0337352 L -2.2072895,0.016013256 L 8.7185884,-4.0017078 C 6.97309,-1.6296469 6.9831476,1.6157441 8.7185878,4.0337352 z"
         transform="matrix(-1.1,0,0,-1.1,-1.1,0)" />
    </marker>
    <inkscape:perspective
       sodipodi:type="inkscape:persp3d"
       inkscape:vp_x="0 : 526.18109 : 1"
       inkscape:vp_y="0 : 1000 : 0"
       inkscape:vp_z="744.09448 : 526.18109 : 1"
       inkscape:persp3d-origin="372.04724 : 350.78739 : 1"
       id="perspective10" />
    <inkscape:perspective
       id="perspective6058"
       inkscape:persp3d-origin="0.5 : 0.33333333 : 1"
       inkscape:vp_z="1 : 0.5 : 1"
       inkscape:vp_y="0 : 1000 : 0"
       inkscape:vp_x="0 : 0.5 : 1"
       sodipodi:type="inkscape:persp3d" />
    <inkscape:perspective
       id="perspective6097"
       inkscape:persp3d-origin="0.5 : 0.33333333 : 1"
       inkscape:vp_z="1 : 0.5 : 1"
       inkscape:vp_y="0 : 1000 : 0"
       inkscape:vp_x="0 : 0.5 : 1"
       sodipodi:type="inkscape:persp3d" />
    <inkscape:perspective
       id="perspective6136"
       inkscape:persp3d-origin="0.5 : 0.33333333 : 1"
       inkscape:vp_z="1 : 0.5 : 1"
       inkscape:vp_y="0 : 1000 : 0"
       inkscape:vp_x="0 : 0.5 : 1"
       sodipodi:type="inkscape:persp3d" />
    <inkscape:perspective
       id="perspective6136-0"
       inkscape:persp3d-origin="0.5 : 0.33333333 : 1"
       inkscape:vp_z="1 : 0.5 : 1"
       inkscape:vp_y="0 : 1000 : 0"
       inkscape:vp_x="0 : 0.5 : 1"
       sodipodi:type="inkscape:persp3d" />
    <inkscape:perspective
       id="perspective6136-04"
       inkscape:persp3d-origin="0.5 : 0.33333333 : 1"
       inkscape:vp_z="1 : 0.5 : 1"
       inkscape:vp_y="0 : 1000 : 0"
       inkscape:vp_x="0 : 0.5 : 1"
       sodipodi:type="inkscape:persp3d" />
  </defs>
  <sodipodi:namedview
     id="base"
     pagecolor="#ffffff"
     bordercolor="#666666"
     borderopacity="1.0"
     gridtolerance="10000"
     guidetolerance="10"
     objecttolerance="10"
     inkscape:pageopacity="0.0"
     inkscape:pageshadow="2"
     inkscape:zoom="2.0507279"
     inkscape:cx="323.94366"
     inkscape:cy="101.37597"
     inkscape:document-units="px"
     inkscape:current-layer="capa1"
     showgrid="false"
     inkscape:window-width="1672"
     inkscape:window-height="972"
     inkscape:window-x="0"
     inkscape:window-y="0"
     inkscape:window-maximized="0" />
  <metadata
     id="metadata7">
    <rdf:RDF>
      <cc:Work
         rdf:about="">
        <dc:format>image/svg+xml</dc:format>
        <dc:type
           rdf:resource="http://purl.org/dc/dcmitype/StillImage" />
      </cc:Work>
    </rdf:RDF>
  </metadata>
  <g
     inkscape:label="Capa 1"
     inkscape:groupmode="layer"
     id="capa1"
     transform="translate(-76.486832,-81.625877)">
    <path
       style="fill:none;fill-rule:evenodd;stroke:#000000;stroke-width:0.8126508px;stroke-linecap:butt;stroke-linejoin:miter;marker-start:url(#Arrow1Lstart);marker-mid:none;marker-end:none;stroke-opacity:1"
       d="M 231.24805,120.04129 C 231.24805,282.76677 231.24805,282.76677 231.24805,282.76677"
       id="path2389" />
    <path
       style="fill:none;fill-rule:evenodd;stroke:#000000;stroke-width:0.877;stroke-linecap:butt;stroke-linejoin:miter;marker-start:none;marker-mid:none;marker-end:url(#Arrow1Lstart);stroke-opacity:1;stroke-miterlimit:4;stroke-dasharray:none"
       d="M 99.756387,229.08786 C 349.68561,229.08786 345.86406,229.08786 345.86406,229.08786"
       id="path2391" />
    <text
       xml:space="preserve"
       style="font-size:24px;font-style:normal;font-weight:normal;fill:#000000;fill-opacity:1;stroke:none;font-family:Bitstream Vera Sans"
       x="222.15666"
       y="102.05374"
       id="text8095"><tspan
         sodipodi:role="line"
         x="222.15666"
         y="132.05374"
         id="tspan6038">X</tspan></text>
    <text
       xml:space="preserve"
       style="font-size:24px;font-style:normal;font-weight:normal;fill:#000000;fill-opacity:1;stroke:none;font-family:Bitstream Vera Sans"
       x="349.39084"
       y="238.00592"
       id="text8099"
       inkscape:transform-center-x="7.3769531"><tspan
         sodipodi:role="line"
         id="tspan8101"
         x="349.39084"
         y="238.00592">Z</tspan></text>
    <path
       sodipodi:type="arc"
       style="fill:none;stroke:#000000;stroke-width:0.53834504000000005;stroke-miterlimit:4;stroke-dasharray:none;stroke-dashoffset:0;marker-start:none;marker-end:url(#Arrow2Lend)"
       id="path8125"
       sodipodi:cx="50.507626"
       sodipodi:cy="186.66145"
       sodipodi:rx="39.39595"
       sodipodi:ry="39.39595"
       d="m 50.273415,147.2662 a 39.39595,39.39595 0 0 1 36.645206,24.35264"
       sodipodi:start="4.7064439"
       sodipodi:end="5.8914081"
       transform="matrix(1.8238427,0,0,1.8918694,139.41167,-120.6109)"
       sodipodi:open="true" />
    <text
       xml:space="preserve"
       style="font-size:16px;font-style:normal;font-weight:normal;fill:#000000;fill-opacity:1;stroke:none;font-family:Bitstream Vera Sans"
       x="592.71002"
       y="189.91211"
       id="text9690"><tspan
         sodipodi:role="line"
         id="tspan9692"
         x="592.71002"
         y="189.91211">Azimuth (a)</tspan></text>
    <flowRoot
       xml:space="preserve"
       id="flowRoot9700"
       style="font-size:12px;font-style:normal;font-weight:normal;fill:#000000;fill-opacity:1;stroke:none;stroke-width:1px;stroke-linecap:butt;stroke-linejoin:miter;stroke-opacity:1;font-family:Bitstream Vera Sans"><flowRegion
         id="flowRegion9702"><rect
           id="rect9704"
           width="249.50768"
           height="80.812202"
           x="132.32999"
           y="226.0574" /></flowRegion><flowPara
         id="flowPara9706" /></flowRoot>    <path
       style="fill:none;fill-rule:evenodd;stroke:#000000;stroke-width:0.81600618px;stroke-linecap:butt;stroke-linejoin:miter;marker-start:url(#Arrow1Lstart);marker-mid:none;marker-end:none;stroke-opacity:1"
       d="M 529.13743,120.68263 C 529.13743,284.83333 529.13743,284.83333 529.13743,284.83333"
       id="path3198" />
    <path
       style="fill:none;fill-rule:evenodd;stroke:#000000;stroke-width:0.92672235px;stroke-linecap:butt;stroke-linejoin:miter;marker-start:none;marker-mid:none;marker-end:url(#Arrow1Lstart);stroke-opacity:1"
       d="M 396.24215,230.44181 C 677.31148,230.44181 673.01379,230.44181 673.01379,230.44181"
       id="path3200" />
    <text
       xml:space="preserve"
       style="font-size:24px;font-style:normal;font-weight:normal;fill:#000000;fill-opacity:1;stroke:none;font-family:Bitstream Vera Sans"
       x="520.04608"
       y="102.53539"
       id="text3202"><tspan
         sodipodi:role="line"
         id="tspan3204"
         x="520.04608"
         y="102.53539">Y</tspan></text>
    <text
       xml:space="preserve"
       style="font-size:24px;font-style:normal;font-weight:normal;fill:#000000;fill-opacity:1;stroke:none;stroke-width:1px;stroke-linecap:butt;stroke-linejoin:miter;stroke-opacity:1;font-family:Bitstream Vera Sans"
       x="689.4231"
       y="234.35988"
       id="text3206"><tspan
         sodipodi:role="line"
         id="tspan3208"
         x="689.4231"
         y="234.35988">X</tspan></text>
    <path
       sodipodi:type="arc"
       style="fill:none;stroke:#000000;stroke-width:0.62669992;stroke-miterlimit:4;stroke-opacity:1;stroke-dasharray:none;marker-start:url(#Arrow1Lstart);marker-end:none"
       id="path3212"
       sodipodi:cx="590.71429"
       sodipodi:cy="168.43361"
       sodipodi:rx="39.655895"
       sodipodi:ry="39.655895"
       d="m 600.978,130.12896 a 39.655895,39.655895 0 0 1 29.3636,39.81031"
       sodipodi:start="4.9741884"
       sodipodi:end="6.3211627"
       sodipodi:open="true"
       transform="matrix(1.7069748,0,0,1.6137557,-479.44622,-44.323499)" />
    <text
       xml:space="preserve"
       style="font-size:16px;font-style:normal;font-weight:normal;fill:#000000;fill-opacity:1;stroke:none;font-family:Bitstream Vera Sans"
       x="259.91016"
       y="155.2094"
       id="text7844"><tspan
         sodipodi:role="line"
         id="tspan7846"
         x="259.91016"
         y="155.2094">Elevation (e)</tspan></text>
    <g
       id="g6177"
       transform="translate(-0.7142857,0.7142857)">
      <path
         id="path2405"
         d="M 530.66619,201.38192 C 518.55449,201.38192 508.72868,214.06539 508.72869,229.72567 C 508.72869,245.38594 518.5545,258.10067 530.66619,258.10067 C 539.02962,258.10067 546.27661,252.03925 549.97869,243.13192 C 550.08376,243.13601 550.18529,243.16317 550.29119,243.16317 C 555.53188,243.16317 559.79118,238.10832 559.79119,231.88192 C 559.79119,226.12005 556.14398,221.3722 551.44744,220.69442 C 548.52403,209.46683 540.33116,201.38192 530.66619,201.38192 z"
         style="fill:#fdd99b;fill-opacity:1;stroke:#986601;stroke-width:1.4000001;stroke-miterlimit:4;stroke-dasharray:none;stroke-opacity:1" />
      <path
         sodipodi:open="true"
         sodipodi:end="5.6328692"
         sodipodi:start="0.6981502"
         transform="matrix(0.9902454,0,0,0.372409,104.83876,177.35323)"
         d="m 432.86521,159.19765 c -2.15542,9.67013 -5.98501,10.93121 -8.55364,2.8167 -2.56863,-8.1145 -2.9036,-22.5318 -0.74819,-32.20193 2.15542,-9.67013 5.98501,-10.93121 8.55364,-2.8167 0.34503,1.08999 0.65678,2.32115 0.92948,3.67073"
         sodipodi:ry="22.857143"
         sodipodi:rx="6.0714288"
         sodipodi:cy="144.50504"
         sodipodi:cx="428.21429"
         id="path3192"
         style="fill:#fdd99b;fill-opacity:1;stroke:#986601;stroke-width:2.47007275;stroke-miterlimit:4;stroke-dasharray:none;stroke-opacity:1"
         sodipodi:type="arc" />
      <path
         transform="translate(484.57287,35.282313)"
         d="m 63.639611,187.6716 c 0,1.11578 -2.261304,2.02031 -5.050763,2.02031 -2.789459,0 -5.050763,-0.90453 -5.050763,-2.02031 0,-1.11578 2.261304,-2.0203 5.050763,-2.0203 2.789459,0 5.050763,0.90452 5.050763,2.0203 z"
         sodipodi:ry="2.0203052"
         sodipodi:rx="5.0507627"
         sodipodi:cy="187.6716"
         sodipodi:cx="58.588848"
         id="path3194"
         style="fill:#b3defd;fill-opacity:1;stroke:#336699;stroke-width:1.39999998;stroke-miterlimit:4;stroke-dasharray:none;stroke-dashoffset:0"
         sodipodi:type="arc" />
    </g>
    <g
       id="g7848">
      <path
         id="path8105"
         d="M 231.2024,200.72784 C 228.8163,200.72784 226.85945,204.01898 226.58031,208.28247 C 219.43684,209.87339 213.561,215.42977 210.90853,222.79615 C 210.57191,222.18782 210.20448,221.82439 209.80116,221.82439 C 208.43396,221.82439 207.3216,225.74494 207.3216,230.60156 C 207.3216,235.45819 208.43396,239.41008 209.80116,239.41008 C 210.03227,239.41008 210.23886,239.27591 210.45114,239.06526 C 213.25719,248.5727 221.30995,255.42841 230.79315,255.42841 C 240.51395,255.42841 248.7232,248.22309 251.32775,238.34428 C 251.59833,238.70506 251.88847,238.90852 252.19439,238.90852 C 253.56159,238.90852 254.67395,234.95664 254.67395,230.10001 C 254.67395,225.24338 253.56159,221.29148 252.19439,221.29149 C 251.64339,221.29149 251.16154,221.96463 250.74999,223.04693 C 248.24024,215.83822 242.67536,210.31072 235.82449,208.47056 C 235.59303,204.11433 233.62436,200.72785 231.2024,200.72784 z"
         style="fill:#fdd99b;fill-opacity:1;stroke:#986601;stroke-width:1.23067915;stroke-miterlimit:4;stroke-dashoffset:0" />
      <path
         transform="matrix(0.7703485,0,0,1.003105,178.27505,31.717062)"
         d="m 63.639611,187.6716 c 0,1.11578 -2.261304,2.02031 -5.050763,2.02031 -2.789459,0 -5.050763,-0.90453 -5.050763,-2.02031 0,-1.11578 2.261304,-2.0203 5.050763,-2.0203 2.789459,0 5.050763,0.90452 5.050763,2.0203 z"
         sodipodi:ry="2.0203052"
         sodipodi:rx="5.0507627"
         sodipodi:cy="187.6716"
         sodipodi:cx="58.588848"
         id="path8107"
         style="fill:#b3defd;fill-opacity:1;stroke:#336699;stroke-width:1.39999998;stroke-miterlimit:4;stroke-dasharray:none;stroke-dashoffset:0"
         sodipodi:type="arc" />
      <path
         transform="matrix(0.7703485,0,0,1.003105,194.6166,30.703777)"
         d="m 63.639611,187.6716 c 0,1.11578 -2.261304,2.02031 -5.050763,2.02031 -2.789459,0 -5.050763,-0.90453 -5.050763,-2.02031 0,-1.11578 2.261304,-2.0203 5.050763,-2.0203 2.789459,0 5.050763,0.90452 5.050763,2.0203 z"
         sodipodi:ry="2.0203052"
         sodipodi:rx="5.0507627"
         sodipodi:cy="187.6716"
         sodipodi:cx="58.588848"
         id="path8109"
         style="fill:#b3defd;fill-opacity:1;stroke:#336699;stroke-width:1.39999998;stroke-miterlimit:4;stroke-dasharray:none;stroke-dashoffset:0"
         sodipodi:type="arc" />
    </g>
    <text
       xml:space="preserve"
       style="font-size:16px;font-style:normal;font-weight:normal;fill:#000000;fill-opacity:1;stroke:none;font-family:Bitstream Vera Sans"
       x="224.23924"
       y="87.750488"
       id="text6046"><tspan
         sodipodi:role="line"
         id="tspan6048"
         x="224.23924"
         y="87.750488">~</tspan></text>
    <text
       xml:space="preserve"
       style="font-size:16px;font-style:normal;font-weight:normal;fill:#000000;fill-opacity:1;stroke:none;font-family:Bitstream Vera Sans"
       x="351.14725"
       y="221.5009"
       id="text6046-2"><tspan
         sodipodi:role="line"
         id="tspan6048-6"
         x="351.14725"
         y="221.5009">~</tspan></text>
    <text
       xml:space="preserve"
       style="font-size:16px;font-style:normal;font-weight:normal;fill:#000000;fill-opacity:1;stroke:none;font-family:Bitstream Vera Sans"
       x="690.53894"
       y="218.08746"
       id="text6046-2-8"><tspan
         sodipodi:role="line"
         id="tspan6048-6-7"
         x="690.53894"
         y="218.08746">~</tspan></text>
    <text
       xml:space="preserve"
       style="font-size:16px;font-style:normal;font-weight:normal;fill:#000000;fill-opacity:1;stroke:none;font-family:Bitstream Vera Sans"
       x="519.8678"
       y="87.840309"
       id="text6046-2-8-9"><tspan
         sodipodi:role="line"
         id="tspan6048-6-7-6"
         x="519.8678"
         y="87.840309">~</tspan></text>
    <text
       xml:space="preserve"
       style="font-size:16px;font-style:normal;font-weight:normal;fill:#000000;fill-opacity:1;stroke:none;font-family:Bitstream Vera Sans"
       x="667.62024"
       y="183.95325"
       id="text6046-2-8-4"><tspan
         sodipodi:role="line"
         id="tspan6048-6-7-1"
         x="667.62024"
         y="183.95325">~</tspan></text>
    <text
       xml:space="preserve"
       style="font-size:16px;font-style:normal;font-weight:normal;fill:#000000;fill-opacity:1;stroke:none;font-family:Bitstream Vera Sans"
       x="343.83273"
       y="149.81903"
       id="text6046-2-8-8"><tspan
         sodipodi:role="line"
         id="tspan6048-6-7-7"
         x="343.83273"
         y="149.81903">~</tspan></text>
  </g>
</svg>
